<?xml version="1.0" encoding="utf-8"?><!-- Generator: Adobe Illustrator 26.0.2, SVG Export Plug-In . SVG Version: 6.00 Build 0)  --><svg version="1.1" id="Layer_1" xmlns="http://www.w3.org/2000/svg" xmlns:xlink="http://www.w3.org/1999/xlink" x="0px" y="0px"	 viewBox="0 0 977.64 720.94"  fill="#ffffff" xml:space="preserve"><g>	<path d="M870.12,0.02c-254.18-0.02-508.37-0.02-762.55,0C43.15,0.02,0.03,43.32,0.02,107.96c-0.02,168.31-0.02,336.62,0,504.93		c0.01,65.05,43.19,108.03,108.51,108.04c126.58,0.02,253.16,0.01,379.75,0.01c127.26,0,254.52,0.02,381.78-0.01		c63.99-0.02,107.53-43.27,107.55-106.94c0.05-168.99,0.05-337.98,0-506.96C977.59,43.28,934.11,0.02,870.12,0.02z M936.88,612.34		c0,43.21-24.81,67.86-68.28,67.86c-126.58,0.01-253.15,0-379.73,0c-126.92,0-253.83,0.01-380.75-0.01		c-42.5-0.01-67.38-25.02-67.38-67.73c-0.01-167.96-0.01-335.92,0-503.89c0-43.24,24.76-67.84,68.27-67.84		c253.15,0,506.31,0,759.46,0c43.96,0,68.41,24.56,68.41,68.73C936.89,277.09,936.89,444.72,936.88,612.34z"/>	<path d="M705.69,250.5c-37.63,0-75.27,0.03-112.9-0.02c-15.68-0.02-24.77-7.74-24.59-20.67c0.17-12.46,9.17-20.02,24.2-20.03		c76.29-0.04,152.57-0.03,228.86,0c15.77,0.01,24.68,7.6,24.5,20.66c-0.17,12.63-8.95,20.02-24.11,20.04		C782.99,250.54,744.34,250.5,705.69,250.5z"/>	<path d="M707.04,380.83c-38.99,0-77.98,0.16-116.97-0.07c-17.17-0.1-27.3-16.01-19.45-29.99c3.96-7.06,10.24-10.63,18.38-10.64		c78.66-0.02,157.32-0.09,235.98,0.07c12.53,0.02,20.77,8.57,20.77,20.24c0.01,12.04-8.45,20.28-21.74,20.33		C785.02,380.93,746.03,380.83,707.04,380.83z"/>	<path d="M706.73,470.44c38.65,0,77.3-0.05,115.95,0.03c13.45,0.03,21.85,6.79,22.94,18.01c1.26,13.02-7.36,22.47-21.35,22.61		c-23.05,0.24-46.11,0.07-69.16,0.07c-54.59,0-109.17,0.05-163.76-0.03c-14.11-0.02-23-7.91-23.16-20.05		c-0.16-12.27,8.68-20.56,22.59-20.6C629.43,470.37,668.08,470.44,706.73,470.44z"/>	<path d="M453.76,553.57c-0.25-7.44-0.88-14.91-1.95-22.28c-12.26-84.75-85.01-144.72-169.61-139.96		c-83.65,4.71-149.96,74.87-151.76,160.57c-0.42,20.01,6.31,26.96,26.46,26.98c45.12,0.05,90.23,0.01,135.35,0.01		c45.79,0,91.59,0.08,137.38-0.04C446.66,578.79,454.33,570.69,453.76,553.57z M403.39,538.3c-37.3-0.3-74.6-0.14-111.9-0.14		c-36.62,0-73.25-0.15-109.87,0.13c-6.96,0.05-9.49-0.95-7.81-8.85c12.17-57.15,61.58-97.89,118.93-97.52		c57.26,0.36,105.59,40.88,117.47,97.91C411.68,536.88,410.37,538.35,403.39,538.3z"/>	<path d="M291.98,141.93c-58.41,0.04-105.18,47.01-104.99,105.45c0.18,58.16,47.63,105.24,105.73,104.92		c58.05-0.32,104.84-47.82,104.51-106.13C396.91,188.4,349.94,141.89,291.98,141.93z M292,311.67		c-35.83-0.01-64.4-28.79-64.27-64.75c0.13-35.94,28.82-64.22,64.92-63.99c35.85,0.23,64.15,29.1,63.85,65.14		C356.21,283.31,327.44,311.68,292,311.67z"/></g></svg>