<svg xmlns="http://www.w3.org/2000/svg" width="39.64" height="39.323" viewBox="0 0 39.64 39.323">
  <g id="Group_73446" data-name="Group 73446" transform="translate(0 0)">
    <path id="Path_139589" data-name="Path 139589" d="M1006.73,534.9h2.606v20.825h-2.606Z" transform="translate(-969.697 -530.996)" fill="#474747"/>
    <path id="Path_139590" data-name="Path 139590" d="M1008.15,534.9v18.221a1.293,1.293,0,0,0,.384.921,1.31,1.31,0,0,0,.924.381V534.9Z" transform="translate(-969.818 -530.996)" fill="#686868"/>
    <path id="Path_139593" data-name="Path 139593" d="M995.343,560.519h13.02v11.714h-13.02Z" transform="translate(-968.723 -533.187)" fill="#686868"/>
    <path id="Path_139594" data-name="Path 139594" d="M998.19,567.678a1.951,1.951,0,0,0,1.948,1.952h8.468v-9.111H998.19Z" transform="translate(-968.966 -533.187)" fill="#939393"/>
    <path id="Path_139595" data-name="Path 139595" d="M990.307,572.294,985.1,561.231H972.084l-5.206,11.063Z" transform="translate(-966.289 -533.247)" fill="#b5b5b5"/>
    <path id="Path_139596" data-name="Path 139596" d="M975.642,561.231l-5.205,11.063h20.174L985.4,561.231Z" transform="translate(-966.593 -533.247)" fill="#ccc"/>
    <path id="Path_139597" data-name="Path 139597" d="M989.663,572.545l1.178-.553-5.206-11.064-1.178.554,1.095,2.326H971.524l1.095-2.326-1.179-.554-5.206,11.064,1.179.553,1.049-2.229h20.151Zm-3.5-7.435.613,1.3H970.3l.613-1.3Zm-17.088,3.9.613-1.3h17.7l.612,1.3Z" transform="translate(-966.234 -533.221)" fill="#474747"/>
    <path id="Path_139598" data-name="Path 139598" d="M984.042,540.594a3.9,3.9,0,0,1,3.9,3.9v14.316a1.3,1.3,0,0,1-1.3,1.3H971.026a1.3,1.3,0,0,1-1.3-1.3V544.5a3.906,3.906,0,0,1,3.9-3.9Z" transform="translate(-966.532 -531.483)" fill="#78a0d4"/>
    <path id="Path_139599" data-name="Path 139599" d="M984.164,540.594H973.752a2.161,2.161,0,0,0-2.6,2.6v14.316a1.3,1.3,0,0,0,1.3,1.3h15.618V544.5a3.9,3.9,0,0,0-3.9-3.9Z" transform="translate(-966.654 -531.483)" fill="#93bee5"/>
    <path id="Path_139600" data-name="Path 139600" d="M987.946,554.826v5.206a1.3,1.3,0,0,1-1.3,1.3H971.026a1.3,1.3,0,0,1-1.3-1.3v-5.206Z" transform="translate(-966.532 -532.7)" fill="#2862be"/>
    <path id="Path_139601" data-name="Path 139601" d="M971.148,554.826v3.9a1.3,1.3,0,0,0,1.3,1.3h15.618v-5.206Z" transform="translate(-966.654 -532.7)" fill="#3279ea"/>
    <path id="Path_139602" data-name="Path 139602" d="M984.285,544.152H973.873a1.3,1.3,0,0,0-1.3,1.3v3.9a1.3,1.3,0,0,0,1.3,1.3h10.411a1.3,1.3,0,0,0,1.3-1.3v-3.9A1.3,1.3,0,0,0,984.285,544.152Z" transform="translate(-966.776 -531.787)" fill="#e2e7f6"/>
    <path id="Path_139603" data-name="Path 139603" d="M984.468,544.152h-9.761v3.254a1.3,1.3,0,0,0,1.3,1.3h9.761v-3.255a1.3,1.3,0,0,0-1.3-1.3Z" transform="translate(-966.958 -531.787)" fill="#f2f2f2"/>
    <path id="Path_139605" data-name="Path 139605" d="M989.285,557.673h-1.3a2.6,2.6,0,0,0-2.6,2.6v1.3h2.6a1.3,1.3,0,0,0,1.3-1.3Z" transform="translate(-967.871 -532.943)" fill="#f6b940"/>
    <path id="Path_139607" data-name="Path 139607" d="M985,536.488a6.646,6.646,0,0,1-1.055,3.595l-4.8,7.469-4.8-7.469a6.647,6.647,0,0,1-1.056-3.595,5.857,5.857,0,1,1,11.714,0Z" transform="translate(-966.837 -530.631)" fill="#b52f28"/>
    <path id="Path_139608" data-name="Path 139608" d="M984.124,540.092a6.646,6.646,0,0,0,1.055-3.595,4.893,4.893,0,1,0-9.761,0,6.654,6.654,0,0,0,1.055,3.595l3.825,5.95Z" transform="translate(-967.019 -530.639)" fill="#d23f34"/>
    <path id="Path_139610" data-name="Path 139610" d="M992.5,539.171h10.41v3.9H992.5Z" transform="translate(-968.48 -531.361)" fill="#4fb5dc"/>
    <path id="Path_139614" data-name="Path 139614" d="M1008.119,560.276H992.5v-2.6h15.622" transform="translate(-968.48 -532.943)" fill="#b5b5b5"/>
    <path id="Path_139615" data-name="Path 139615" d="M995.933,558.974H1008.3v-1.3h-13.67a1.3,1.3,0,0,0,1.3,1.3Z" transform="translate(-968.662 -532.943)" fill="#ccc"/>
    <path id="Path_139617" data-name="Path 139617" d="M987.984,557.673a2.6,2.6,0,0,0-2.6,2.6h3.9v-2.6Z" transform="translate(-967.871 -532.943)" fill="#fad85d"/>
  </g>
</svg>
