<svg xmlns="http://www.w3.org/2000/svg" width="40.116" height="36.58" viewBox="0 0 40.116 36.58">
  <g id="Group_73561" data-name="Group 73561" transform="translate(0)">
    <path id="Path_139769" data-name="Path 139769" d="M562.2,555.3H545.365l-2.131-19.113V531.1a.471.471,0,0,1,.47-.471h16.541a1.959,1.959,0,0,1,1.959,1.959Z" transform="translate(-543.234 -530.631)" fill="#9d6b6b"/>
    <path id="Path_139770" data-name="Path 139770" d="M561.567,530.631H558.7a2,2,0,0,1,2,2V555.3h2.824V532.59A1.959,1.959,0,0,0,561.567,530.631Z" transform="translate(-544.556 -530.631)" fill="#8b5e5e"/>
    <path id="Path_139771" data-name="Path 139771" d="M543.234,555.82h13.322v-5.278a13.846,13.846,0,0,0-13.322-13.836Z" transform="translate(-543.234 -531.151)" fill="#785252"/>
    <path id="Path_139772" data-name="Path 139772" d="M543.234,536.707v1.041a13.848,13.848,0,0,1,8.55,12.795v5.278h4.772v-5.278A13.846,13.846,0,0,0,543.234,536.707Z" transform="translate(-543.234 -531.151)" fill="#664545"/>
    <path id="Path_139773" data-name="Path 139773" d="M567.274,566.194h-24.04v-19.06h11.2a14.3,14.3,0,0,1,11.5,5.8c.112.151,1.691,3.046,1.691,3.046l2.987,3.82.026.039a4.065,4.065,0,0,1-3.363,6.35Z" transform="translate(-543.234 -532.042)" fill="#e7ecf6"/>
    <path id="Path_139774" data-name="Path 139774" d="M571.357,559.844l-.026-.039-2.987-3.82s-1.579-2.9-1.691-3.046a14.3,14.3,0,0,0-11.5-5.8H551.66a14.3,14.3,0,0,1,11.829,6.264l4.379,6.445a4.066,4.066,0,0,1-3.363,6.35h3.491a4.065,4.065,0,0,0,3.363-6.35Z" transform="translate(-543.954 -532.042)" fill="#d8e2f1"/>
    <path id="Path_139775" data-name="Path 139775" d="M580.528,565.074a.6.6,0,0,1-.6-.6V547.447a.6.6,0,1,1,1.2,0v17.027A.6.6,0,0,1,580.528,565.074Z" transform="translate(-546.371 -532.017)" fill="#b9cbea"/>
    <path id="Path_139776" data-name="Path 139776" d="M580.083,550.012a5.359,5.359,0,1,0-5.358-5.358A5.358,5.358,0,0,0,580.083,550.012Z" transform="translate(-545.927 -531.372)" fill="#f6e266"/>
    <path id="Path_139777" data-name="Path 139777" d="M582.639,539.971a5.359,5.359,0,0,1-7.239,7.239,5.359,5.359,0,1,0,7.239-7.239Z" transform="translate(-545.984 -531.43)" fill="#f1d333"/>
    <path id="Path_139778" data-name="Path 139778" d="M580.027,550.557a5.959,5.959,0,1,1,5.96-5.959A5.966,5.966,0,0,1,580.027,550.557Zm0-10.718a4.759,4.759,0,1,0,4.759,4.759A4.764,4.764,0,0,0,580.027,539.839Z" transform="translate(-545.87 -531.316)" fill="#2b4d66"/>
    <path id="Path_139779" data-name="Path 139779" d="M581.92,561.454h-3.044a.47.47,0,0,0-.47.47v2.216h3.984v-2.216A.47.47,0,0,0,581.92,561.454Z" transform="translate(-546.241 -533.266)" fill="#4a80aa"/>
    <path id="Path_139780" data-name="Path 139780" d="M581.92,561.454h-.552v.863a.64.64,0,0,1-.64.64h-2.322v1.182h3.984v-2.216A.47.47,0,0,0,581.92,561.454Z" transform="translate(-546.241 -533.266)" fill="#407093"/>
    <path id="Path_139781" data-name="Path 139781" d="M555.956,560.347H543.234v-6.865h12.8a1.254,1.254,0,0,1,1.254,1.254v4.28A1.332,1.332,0,0,1,555.956,560.347Z" transform="translate(-543.234 -532.585)" fill="#90d8f9"/>
    <path id="Path_139782" data-name="Path 139782" d="M557.076,553.482h-1.651a1.361,1.361,0,0,1,1.361,1.361v4.144a1.361,1.361,0,0,1-1.361,1.361H557a1.332,1.332,0,0,0,1.332-1.331v-4.28A1.254,1.254,0,0,0,557.076,553.482Z" transform="translate(-544.276 -532.585)" fill="#75cef9"/>
    <path id="Path_139783" data-name="Path 139783" d="M563.642,555.246l2.862,4.1a2.349,2.349,0,0,0,1.925,1h3.909l-4.351-6.406c-.106-.155-.216-.308-.327-.459h-3.1A1.121,1.121,0,0,0,563.642,555.246Z" transform="translate(-544.961 -532.585)" fill="#90d8f9"/>
    <path id="Path_139784" data-name="Path 139784" d="M578.124,547.3a.6.6,0,0,1-.382-1.064l1.981-1.635v-2.04a.6.6,0,0,1,1.2,0v2.324a.6.6,0,0,1-.219.463l-2.2,1.815A.6.6,0,0,1,578.124,547.3Z" transform="translate(-546.166 -531.599)" fill="#365e7d"/>
    <path id="Path_139785" data-name="Path 139785" d="M580.458,546.371a1.342,1.342,0,1,0-1.342-1.342A1.342,1.342,0,0,0,580.458,546.371Z" transform="translate(-546.302 -531.747)" fill="#4a80aa"/>
    <path id="Path_139786" data-name="Path 139786" d="M580.987,543.8a1.342,1.342,0,0,1-1.757,1.757,1.343,1.343,0,1,0,1.757-1.757Z" transform="translate(-546.312 -531.757)" fill="#407093"/>
    <path id="Path_139787" data-name="Path 139787" d="M583.216,564.127h-5.9a.47.47,0,0,0-.47.47v2.3h6.843v-2.3A.47.47,0,0,0,583.216,564.127Z" transform="translate(-546.108 -533.495)" fill="#4a80aa"/>
    <path id="Path_139788" data-name="Path 139788" d="M583.216,564.127h-.552v.946a.64.64,0,0,1-.64.64h-5.181V566.9h6.843v-2.3A.47.47,0,0,0,583.216,564.127Z" transform="translate(-546.108 -533.495)" fill="#407093"/>
    <path id="Path_139789" data-name="Path 139789" d="M582.279,570.314H543.7a.471.471,0,0,1-.47-.47v-2.917h39.045a.47.47,0,0,1,.47.47v2.447A.47.47,0,0,1,582.279,570.314Z" transform="translate(-543.234 -533.734)" fill="#365e7d"/>
    <path id="Path_139790" data-name="Path 139790" d="M582.279,566.927h-.914v1.525a.48.48,0,0,1-.48.48H543.234v.913a.471.471,0,0,0,.47.47h38.575a.47.47,0,0,0,.47-.47V567.4A.47.47,0,0,0,582.279,566.927Z" transform="translate(-543.234 -533.734)" fill="#2b4d66"/>
    <path id="Path_139791" data-name="Path 139791" d="M564.568,553.941l4.351,6.406h3.491l-4.352-6.406c-.105-.155-.215-.308-.326-.459h-3.1a1.154,1.154,0,0,0-.351.055Q564.429,553.737,564.568,553.941Z" transform="translate(-545.034 -532.585)" fill="#75cef9"/>
  </g>
</svg>
