<svg xmlns="http://www.w3.org/2000/svg" width="40.24" height="40.238" viewBox="0 0 40.24 40.238">
  <g id="Group_73448" data-name="Group 73448" transform="translate(0 0)">
    <path id="Path_139618" data-name="Path 139618" d="M563.29,760.181A20.119,20.119,0,1,0,583.408,780.3,20.142,20.142,0,0,0,563.29,760.181Z" transform="translate(-543.168 -760.181)" fill="#4cd3aa"/>
    <path id="Path_139619" data-name="Path 139619" d="M573.521,799.056a20.149,20.149,0,0,0,10.954-16.631l-12.119-12.119a1.254,1.254,0,0,0-.971-.457H557.411a1.258,1.258,0,0,0-.89,2.146l1.964,1.965h-1.075a1.258,1.258,0,0,0-.89,2.147h0l3.8,3.8h-2.914a1.257,1.257,0,0,0-.851,2.184Z" transform="translate(-544.278 -761.008)" fill="#26b290"/>
    <path id="Path_139620" data-name="Path 139620" d="M566.865,772.364a6.234,6.234,0,0,1,.872,1.6h3.648a1.257,1.257,0,1,1,0,2.515h-3.267a6.3,6.3,0,0,1-6.281,5.951h-.778l9.892,7.731a1.258,1.258,0,0,1-1.55,1.981l-12.765-9.979a1.257,1.257,0,0,1,.775-2.248h4.427a3.78,3.78,0,0,0,3.759-3.436H557.41a1.257,1.257,0,0,1,0-2.515h7.509a3.778,3.778,0,0,0-3.082-1.6H557.41a1.257,1.257,0,0,1,0-2.515h13.974a1.257,1.257,0,0,1,0,2.515Z" transform="translate(-544.278 -761.008)" fill="#fff"/>
  </g>
</svg>
