<svg xmlns="http://www.w3.org/2000/svg" xmlns:xlink="http://www.w3.org/1999/xlink" width="205.319" height="126.143" viewBox="0 0 205.319 126.143">
  <defs>
    <clipPath id="clip-path">
      <rect id="Rectangle_28" data-name="Rectangle 28" width="60.336" height="33.47" fill="none"/>
    </clipPath>
    <clipPath id="clip-path-2">
      <rect id="Rectangle_23" data-name="Rectangle 23" width="205.319" height="126.143" fill="none"/>
    </clipPath>
  </defs>
  <g id="Group_1780" data-name="Group 1780" transform="translate(-421.84 -603.928)">
    <g id="Group_1768" data-name="Group 1768" transform="translate(5)">
      <g id="Group_1717" data-name="Group 1717" transform="translate(-334 161)">
        <text id="_2.1_Million_" data-name="2.1 Million +" transform="translate(860 516)" fill="#333" font-size="24" font-family="OpenSans-Bold, Open Sans" font-weight="700"><tspan x="-71" y="0">2.1 Million +</tspan></text>
        <text id="Happy_Customers" data-name="Happy Customers" transform="translate(852 535)" fill="#363637" font-size="14" font-family="OpenSans-Semibold, Open Sans" font-weight="600"><tspan x="-60" y="0">Happy Customers</tspan></text>
      </g>
      <g id="Group_1789" data-name="Group 1789" transform="translate(489.934 610.53)">
        <g id="Group_1788" data-name="Group 1788" clip-path="url(#clip-path)">
          <path id="Path_1082" data-name="Path 1082" d="M103.407,136.051c.085-.386.165-.773.257-1.158a8.571,8.571,0,0,1,3.753-5.288,8.919,8.919,0,0,1,3.385-1.289,1.746,1.746,0,0,1,1.315.462,11.791,11.791,0,0,0,9.033,1.641,10.666,10.666,0,0,0,4.058-1.726,1.933,1.933,0,0,1,1.733-.273,8.7,8.7,0,0,1,6.2,5.2,8.105,8.105,0,0,1,.645,3.276c0,.928,0,1.856,0,2.784a1.358,1.358,0,0,1-.983,1.43A24.838,24.838,0,0,1,127,142.549a55.569,55.569,0,0,1-7.059.532,62.508,62.508,0,0,1-9.307-.465,25.8,25.8,0,0,1-6.337-1.546,2.041,2.041,0,0,1-.891-.9Z" transform="translate(-88.355 -109.622)" fill="#ce993c"/>
          <path id="Path_1083" data-name="Path 1083" d="M155.125,0a8.983,8.983,0,1,1-9.008,8.93A8.961,8.961,0,0,1,155.125,0m4.2,12.554H150.84a5.829,5.829,0,0,0,.308.61,3.413,3.413,0,0,0,1.69,1.3,5.66,5.66,0,0,0,5.528-.58,2.343,2.343,0,0,0,.963-1.326" transform="translate(-124.849 0)" fill="#ce993c"/>
          <path id="Path_1084" data-name="Path 1084" d="M187.051,86.252a2.343,2.343,0,0,1-.963,1.326,5.66,5.66,0,0,1-5.528.58,3.413,3.413,0,0,1-1.69-1.3,5.828,5.828,0,0,1-.308-.61Z" transform="translate(-152.572 -73.697)" fill="#fff"/>
          <path id="Path_1085" data-name="Path 1085" d="M284.557,111.7c-.408.8-1.234.923-1.962,1.132A38.325,38.325,0,0,1,271.677,114a1.41,1.41,0,0,1-.174-.027,10.451,10.451,0,0,0-2.8-6.488,10.579,10.579,0,0,0-6.288-3.288,7.835,7.835,0,0,1,2.729-1.7,2.779,2.779,0,0,1,2.716.42,8.531,8.531,0,0,0,4.838,1.2,9.33,9.33,0,0,0,5.057-1.6,1.346,1.346,0,0,1,1.039-.253,6.952,6.952,0,0,1,5.537,5.126c.074.3.149.6.223.9Z" transform="translate(-224.221 -87.364)" fill="#ce993c"/>
          <path id="Path_1086" data-name="Path 1086" d="M289.483.006a7.152,7.152,0,1,1-7.155,7.1,7.127,7.127,0,0,1,7.155-7.1M292.9,9.884h-6.867c.263,1.12,1.792,1.915,3.436,1.921,1.692.007,3.174-.84,3.432-1.921" transform="translate(-241.233 -0.005)" fill="#ce993c"/>
          <path id="Path_1087" data-name="Path 1087" d="M314.677,67.873c-.258,1.081-1.74,1.928-3.432,1.921-1.644-.007-3.172-.8-3.436-1.921Z" transform="translate(-263.006 -57.994)" fill="#fff"/>
          <path id="Path_1088" data-name="Path 1088" d="M0,111.7c.408.8,1.234.923,1.962,1.132A38.325,38.325,0,0,0,12.88,114a1.408,1.408,0,0,0,.174-.027,10.452,10.452,0,0,1,2.8-6.488A10.578,10.578,0,0,1,22.14,104.2a7.834,7.834,0,0,0-2.729-1.7,2.779,2.779,0,0,0-2.716.42,8.531,8.531,0,0,1-4.838,1.2,9.33,9.33,0,0,1-5.057-1.6,1.345,1.345,0,0,0-1.039-.253,6.952,6.952,0,0,0-5.537,5.126c-.074.3-.149.6-.223.9v3.4" transform="translate(0 -87.364)" fill="#ce993c"/>
          <path id="Path_1089" data-name="Path 1089" d="M48.279,7.1a7.148,7.148,0,1,1-7.155-7.1,7.163,7.163,0,0,1,7.155,7.1m-7.145,4.7c1.644-.007,3.172-.8,3.436-1.921H37.7c.258,1.081,1.74,1.928,3.432,1.921" transform="translate(-29.037 -0.005)" fill="#ce993c"/>
          <path id="Path_1090" data-name="Path 1090" d="M59.533,67.873c.258,1.081,1.74,1.928,3.432,1.921,1.644-.007,3.172-.8,3.436-1.921Z" transform="translate(-50.868 -57.994)" fill="#fff"/>
        </g>
      </g>
    </g>
    <g id="Group_1778" data-name="Group 1778" transform="translate(421.84 603.928)">
      <g id="Group_1773" data-name="Group 1773" clip-path="url(#clip-path-2)">
        <path id="Path_1069" data-name="Path 1069" d="M51.648,120.7a.585.585,0,0,1-.358.386,15.293,15.293,0,0,1-4.562,2.791,23.167,23.167,0,0,1-3.163,1.014,25.6,25.6,0,0,1-3.4.543,22.685,22.685,0,0,1-3.525-.037c-.617-.063-1.247-.149-1.88-.255a19.265,19.265,0,0,1-1.887-.4c-.62-.161-1.233-.341-1.829-.539s-1.157-.435-1.7-.674a16.588,16.588,0,0,1-1.527-.768,12.61,12.61,0,0,1-1.273-.862,19.491,19.491,0,0,1,3.092-1.025c1.153-.3,2.4-.557,3.67-.77s2.611-.426,3.913-.578c1.315-.17,2.623-.315,3.868-.411a26.708,26.708,0,0,1,3.042-.1c1.022,0,2.015.055,2.946.139.675.048,1.311.124,1.9.218a18.7,18.7,0,0,1-1.22-1.443,19.588,19.588,0,0,1-1.51-2.427,17.017,17.017,0,0,1-1.07-2.675,24.921,24.921,0,0,1-.721-3.526,24.42,24.42,0,0,1-.173-3.582,21.577,21.577,0,0,1,.37-3.356,15.607,15.607,0,0,1,.865-2.9,5.7,5.7,0,0,1,.667.77,10.84,10.84,0,0,1,.654.953c.215.345.413.736.624,1.124s.412.8.607,1.238.381.874.577,1.325.367.911.535,1.38a27.783,27.783,0,0,1,.9,2.749c.266.93.507,1.917.718,2.929.221.994.417,2,.569,3.011a24.691,24.691,0,0,1,.36,5.233.611.611,0,0,1-.071.521m-19.69-6.822a14.862,14.862,0,0,0,4.982-1.4.526.526,0,0,0,.407-.262.52.52,0,0,0,.165-.452,23.412,23.412,0,0,0,.644-5.012c.044-.97.057-1.965.033-2.938s-.05-1.965-.13-2.889c-.079-.871-.173-1.831-.339-2.754s-.329-1.883-.562-2.755a19.512,19.512,0,0,0-.73-2.47,8.384,8.384,0,0,0-.935-1.889A13.958,13.958,0,0,0,34.186,93.6a19.034,19.034,0,0,0-.939,3.091,22.842,22.842,0,0,0-.43,6.85,14.163,14.163,0,0,0,.51,2.716,15.855,15.855,0,0,0,.955,2.568,14.03,14.03,0,0,0,.8,1.5c-.494-.213-1.028-.425-1.591-.634-.852-.294-1.748-.6-2.682-.857s-1.888-.491-2.833-.657c-2.369-.414-4.951-.784-7.428-1.011-1.251-.1-2.436-.2-3.574-.208a21.031,21.031,0,0,0-3.123.168,13.1,13.1,0,0,0,2.17,2.14,22.917,22.917,0,0,0,2.943,1.952,26.048,26.048,0,0,0,3.312,1.506,20.139,20.139,0,0,0,3.24.9,22.713,22.713,0,0,0,3.27.36,23.026,23.026,0,0,0,3.169-.116M17,99.967a20,20,0,0,0,2.949.716,17.9,17.9,0,0,0,2.768.236,11.352,11.352,0,0,0,2.249-.219.648.648,0,0,0,.634-.49,16.619,16.619,0,0,0,.823-2.068c.272-.813.513-1.686.72-2.58s.412-1.832.566-2.749.3-1.845.4-2.737c.05-.422.081-.853.112-1.3s.06-.9.072-1.357c.012-.9.024-1.83-.023-2.706a13.494,13.494,0,0,0-.781-4.435,13.99,13.99,0,0,0-1.664,2.162,18.624,18.624,0,0,0-1.412,2.738,22.487,22.487,0,0,0-1.62,6.375,15.946,15.946,0,0,0,.4,5.237,11.728,11.728,0,0,0,.421,1.43c-.376-.291-.781-.588-1.2-.9a33.764,33.764,0,0,0-4.7-2.77c-2.068-.981-4.369-1.961-6.586-2.8-1.1-.422-2.22-.786-3.246-1.1A18.964,18.964,0,0,0,4.968,90a16.277,16.277,0,0,0,3.693,4.954,22.3,22.3,0,0,0,2.667,2.2c.462.326.925.63,1.38.909s.927.518,1.372.734A20.5,20.5,0,0,0,17,99.967M6.463,81.753a20.665,20.665,0,0,0,2.381,1.833c.415.275.824.538,1.248.778s.854.459,1.277.661a13.621,13.621,0,0,0,4.682,1.383.393.393,0,0,0,.352-.038.4.4,0,0,0,.262-.238A22.513,22.513,0,0,0,19,81.975c.18-.4.354-.811.52-1.223s.346-.836.5-1.255c.327-.84.6-1.673.874-2.5a33.438,33.438,0,0,0,1.127-5.026,23.6,23.6,0,0,0,.22-2.383,8.812,8.812,0,0,0-.146-1.965,12.287,12.287,0,0,0-1.92,1.748,17.779,17.779,0,0,0-1.8,2.338,22.29,22.29,0,0,0-1.521,2.758c-.219.482-.424.974-.614,1.472s-.368,1-.505,1.494a15.16,15.16,0,0,0-.5,2.489,19.121,19.121,0,0,0-.1,2.507c.023.428.061.842.11,1.237q-.358-.479-.781-.979c-.511-.629-1.078-1.281-1.7-1.912s-1.239-1.263-1.909-1.83L9.587,77.863q-.648-.543-1.332-1.082c-.91-.716-1.8-1.432-2.733-2.1s-1.808-1.3-2.695-1.848A21.573,21.573,0,0,0,.318,71.469a11.1,11.1,0,0,0,.736,2.578,18.656,18.656,0,0,0,1.415,2.817,21.458,21.458,0,0,0,3.994,4.889M3.1,63.465a24.321,24.321,0,0,0,1.694,2.306,23.585,23.585,0,0,0,1.933,2,13.746,13.746,0,0,0,3.95,2.579c.019.007.038.011.057.017a.362.362,0,0,0,.273.026.357.357,0,0,0,.242-.122c.016-.012.032-.023.047-.036A20.761,20.761,0,0,0,14.253,66.7c.49-.693.96-1.418,1.4-2.147.455-.733.891-1.474,1.27-2.2A31.289,31.289,0,0,0,18.876,57.8c.238-.775.5-1.528.638-2.227a9.076,9.076,0,0,0,.161-1c.027-.318.039-.617.043-.893a11.533,11.533,0,0,0-2.075,1.341,20.163,20.163,0,0,0-2.088,1.919,22.292,22.292,0,0,0-3.463,4.959,15.6,15.6,0,0,0-1.452,4.583c-.051.326-.092.643-.125.953-.11-.288-.23-.585-.364-.888A31.055,31.055,0,0,0,7.8,62.185c-.556-.87-1.2-1.763-1.832-2.653s-1.3-1.777-1.971-2.626c-.651-.849-1.319-1.66-1.985-2.391A22.66,22.66,0,0,0,.057,52.6a6.234,6.234,0,0,0-.05,1.174c.013.419.048.863.1,1.323A17.218,17.218,0,0,0,.695,58,21.212,21.212,0,0,0,3.1,63.465M4.107,45a18.31,18.31,0,0,0,.956,2.564,21.32,21.32,0,0,0,1.216,2.35,14.209,14.209,0,0,0,2.91,3.458.669.669,0,0,0,.188.107.475.475,0,0,0,.288.014.7.7,0,0,0,.2-.087,19.1,19.1,0,0,0,3.365-2.834c.573-.571,1.159-1.172,1.7-1.787s1.042-1.244,1.56-1.859a20.478,20.478,0,0,0,1.369-1.91c.433-.677.894-1.366,1.262-2.055.188-.344.36-.685.516-1.021.174-.331.33-.656.465-.972a7.046,7.046,0,0,0,.524-1.754,12.42,12.42,0,0,0-2.157.943c-.375.2-.756.431-1.141.677q-.287.185-.577.384c-.187.135-.371.275-.555.419a25.929,25.929,0,0,0-2.18,1.917,22.481,22.481,0,0,0-1.906,2.2c-.233.3-.457.621-.674.948s-.392.671-.573,1.017a20.022,20.022,0,0,0-.932,2.091c-.066.19-.127.378-.183.563-.025-.193-.052-.389-.082-.589a22.492,22.492,0,0,0-.4-2.275c-.087-.39-.2-.783-.3-1.17s-.2-.771-.318-1.147c-.286-.944-.654-1.932-1-2.914s-.716-1.969-1.117-2.927l-.592-1.4c-.2-.455-.4-.9-.6-1.322A19.064,19.064,0,0,0,4.06,34.34,11.369,11.369,0,0,0,3.5,36.605c-.067.43-.12.881-.16,1.344-.022.467-.029.949-.024,1.435A22.023,22.023,0,0,0,3.521,42.3,22.759,22.759,0,0,0,4.107,45m5.927-12.572a14.317,14.317,0,0,0,1.676,4,.536.536,0,0,0,.7.207,18.744,18.744,0,0,0,3.645-2.124c.64-.441,1.289-.91,1.906-1.4s1.2-1,1.79-1.492c2.114-1.934,4.575-4.673,5.241-6.587A12.39,12.39,0,0,0,22.8,25.6a15.673,15.673,0,0,0-2.386,1.053,26.814,26.814,0,0,0-2.383,1.464,26.034,26.034,0,0,0-2.168,1.77c-.269.247-.543.506-.794.781s-.484.567-.713.861a19.986,19.986,0,0,0-1.247,1.795c-.018.032-.034.063-.051.1,0-.037.011-.072.015-.109a21.885,21.885,0,0,0,.24-2.181c.023-.379.036-.763.039-1.147s.021-.759.014-1.135c-.011-.941-.068-1.935-.137-2.934-.046-.989-.123-1.992-.231-2.977s-.209-1.928-.359-2.82a18.954,18.954,0,0,0-.546-2.449C10.578,19.65,9.327,24.05,9.4,27.33a17.693,17.693,0,0,0,.175,2.606,22.5,22.5,0,0,0,.461,2.493m8.425-11.609a.539.539,0,0,0,.422.054,19.647,19.647,0,0,0,3.793-1.433c.682-.311,1.364-.654,2.026-1.019l.982-.558q.5-.275.967-.561c.594-.358,1.19-.785,1.789-1.231A21.113,21.113,0,0,0,30.19,14.69c.532-.49,1.067-.948,1.5-1.414a6.907,6.907,0,0,0,1.02-1.347,12.576,12.576,0,0,0-2.166.234,15.887,15.887,0,0,0-2.436.649c-.822.291-1.663.638-2.494,1.027a25.03,25.03,0,0,0-2.342,1.332c-.3.189-.593.392-.883.605s-.551.455-.816.693c-.376.338-.734.689-1.069,1.04.2-.442.384-.908.556-1.389.123-.34.238-.686.343-1.036s.227-.686.323-1.031c.245-.864.456-1.79.669-2.718s.428-1.857.6-2.788.338-1.819.443-2.681a19.013,19.013,0,0,0,.176-2.4,9.512,9.512,0,0,0-1.428,1.405,14.06,14.06,0,0,0-1.424,1.982c-.442.737-.859,1.518-1.227,2.3a19.66,19.66,0,0,0-.861,2.333c-.118.393-.227.793-.326,1.194s-.167.821-.236,1.229c-.133.823-.225,1.638-.273,2.419a14,14,0,0,0,.373,4.156.512.512,0,0,0,.252.337M26.78,8.965a8.468,8.468,0,0,0,2.57-.9,16.716,16.716,0,0,0,1.595-.835c.269-.16.536-.328.8-.506s.529-.335.785-.514c.64-.446,1.292-.958,1.947-1.472.659-.5,1.314-1.026,1.942-1.57S37.654,2.109,38.2,1.573A16.806,16.806,0,0,0,39.659.011a7.793,7.793,0,0,0-1.733.116,11.514,11.514,0,0,0-2.052.515,21.816,21.816,0,0,0-2.1.848A16.664,16.664,0,0,0,31.911,2.58c-.3.2-.592.41-.88.627s-.566.465-.839.7a20.919,20.919,0,0,0-1.519,1.5,12.193,12.193,0,0,0-2.039,3.075c-.1.23-.046.5.147.481M153.671,120.7a.586.586,0,0,0,.358.386,15.284,15.284,0,0,0,4.562,2.791,23.174,23.174,0,0,0,3.162,1.014,25.61,25.61,0,0,0,3.4.543,22.679,22.679,0,0,0,3.525-.037c.617-.063,1.248-.149,1.881-.255a19.283,19.283,0,0,0,1.887-.4c.62-.161,1.233-.341,1.829-.539s1.157-.435,1.7-.674a16.758,16.758,0,0,0,1.527-.768,12.811,12.811,0,0,0,1.273-.862,19.532,19.532,0,0,0-3.093-1.025c-1.153-.3-2.4-.557-3.669-.77s-2.612-.426-3.913-.578c-1.315-.17-2.624-.315-3.868-.411a26.708,26.708,0,0,0-3.042-.1c-1.024,0-2.015.055-2.947.139-.675.048-1.31.124-1.9.218.408-.434.819-.922,1.219-1.443a19.591,19.591,0,0,0,1.511-2.427,17.017,17.017,0,0,0,1.07-2.675,25.043,25.043,0,0,0,.721-3.526,24.3,24.3,0,0,0,.173-3.582,21.684,21.684,0,0,0-.369-3.356,15.639,15.639,0,0,0-.866-2.9,5.764,5.764,0,0,0-.666.77,11.131,11.131,0,0,0-.654.953c-.215.345-.412.736-.624,1.124s-.412.8-.606,1.238l-.578,1.325c-.188.45-.367.911-.535,1.38a28.006,28.006,0,0,0-.9,2.749c-.267.93-.507,1.917-.719,2.929-.22.994-.416,2-.568,3.011a24.6,24.6,0,0,0-.359,5.233.608.608,0,0,0,.071.521m22.859-6.706a22.725,22.725,0,0,0,3.27-.36,20.111,20.111,0,0,0,3.24-.9,26.031,26.031,0,0,0,3.313-1.506,22.845,22.845,0,0,0,2.942-1.952,13.1,13.1,0,0,0,2.17-2.14,21.027,21.027,0,0,0-3.123-.168c-1.138.011-2.323.106-3.575.208-2.477.227-5.058.6-7.427,1.011-.944.167-1.889.408-2.833.657s-1.83.563-2.682.857c-.564.209-1.1.421-1.591.634a14.189,14.189,0,0,0,.8-1.5,15.893,15.893,0,0,0,.954-2.568,14.1,14.1,0,0,0,.51-2.716,22.842,22.842,0,0,0-.429-6.85,19.078,19.078,0,0,0-.94-3.091,13.875,13.875,0,0,0-1.306-2.548,8.384,8.384,0,0,0-.934,1.889,19.508,19.508,0,0,0-.731,2.47c-.233.872-.4,1.824-.561,2.755s-.261,1.883-.339,2.754c-.08.924-.1,1.917-.131,2.889s-.01,1.968.033,2.938a23.435,23.435,0,0,0,.645,5.012.519.519,0,0,0,.164.452.526.526,0,0,0,.408.262,14.863,14.863,0,0,0,4.982,1.4,23.005,23.005,0,0,0,3.168.116M191.238,98.8c.445-.216.912-.458,1.372-.734s.919-.583,1.382-.909a22.365,22.365,0,0,0,2.666-2.2A16.267,16.267,0,0,0,200.351,90a18.974,18.974,0,0,0-2.915.655c-1.025.31-2.145.675-3.245,1.1-2.217.84-4.518,1.82-6.586,2.8a33.815,33.815,0,0,0-4.7,2.77c-.42.308-.826.6-1.2.9a11.885,11.885,0,0,0,.422-1.43,15.935,15.935,0,0,0,.4-5.237,22.487,22.487,0,0,0-1.62-6.375,18.667,18.667,0,0,0-1.412-2.738,14.02,14.02,0,0,0-1.665-2.162,13.517,13.517,0,0,0-.781,4.435c-.047.875-.035,1.8-.023,2.706.012.455.037.91.073,1.357s.061.876.112,1.3c.1.892.255,1.821.4,2.737s.368,1.861.566,2.749.449,1.766.721,2.58a16.418,16.418,0,0,0,.823,2.068.647.647,0,0,0,.634.49,11.337,11.337,0,0,0,2.248.219,17.891,17.891,0,0,0,2.768-.236,20.021,20.021,0,0,0,2.949-.716,20.489,20.489,0,0,0,2.919-1.167m11.611-21.936a18.74,18.74,0,0,0,1.415-2.817A11.059,11.059,0,0,0,205,71.469a21.716,21.716,0,0,0-2.509,1.367c-.887.547-1.762,1.183-2.694,1.848s-1.823,1.382-2.734,2.1c-.454.358-.9.72-1.332,1.082l-1.273,1.082c-.67.566-1.295,1.2-1.909,1.83s-1.187,1.283-1.7,1.912q-.424.5-.781.979c.048-.4.086-.809.109-1.237a19.118,19.118,0,0,0-.1-2.507,15.252,15.252,0,0,0-.5-2.489c-.138-.5-.312-1-.505-1.494s-.4-.989-.614-1.472a22.292,22.292,0,0,0-1.521-2.758,17.814,17.814,0,0,0-1.8-2.338,12.366,12.366,0,0,0-1.92-1.748,8.76,8.76,0,0,0-.146,1.965,23.213,23.213,0,0,0,.219,2.383A33.437,33.437,0,0,0,184.424,77c.278.825.546,1.657.873,2.5.16.419.335.841.5,1.255s.34.821.52,1.223a22.436,22.436,0,0,0,2.332,4.157.4.4,0,0,0,.262.238.394.394,0,0,0,.352.038,13.635,13.635,0,0,0,4.682-1.383q.634-.3,1.277-.661c.424-.24.833-.5,1.247-.778a20.567,20.567,0,0,0,2.382-1.833,21.445,21.445,0,0,0,3.993-4.889M204.624,58a17.213,17.213,0,0,0,.584-2.9c.056-.46.091-.9.1-1.323a6.27,6.27,0,0,0-.05-1.174,22.6,22.6,0,0,0-1.953,1.912c-.667.732-1.335,1.543-1.985,2.391-.668.849-1.346,1.736-1.972,2.626s-1.276,1.783-1.832,2.653a31.008,31.008,0,0,0-2.355,4.355q-.2.456-.363.888c-.033-.309-.073-.627-.125-.953a15.572,15.572,0,0,0-1.451-4.583,22.292,22.292,0,0,0-3.463-4.959,20.256,20.256,0,0,0-2.088-1.919,11.52,11.52,0,0,0-2.076-1.341c0,.276.016.575.044.893a8.962,8.962,0,0,0,.16,1c.143.7.4,1.452.64,2.227a31.384,31.384,0,0,0,1.954,4.557c.38.727.816,1.467,1.27,2.2.437.73.908,1.454,1.4,2.147a20.763,20.763,0,0,0,2.957,3.532c.015.013.031.024.046.036a.494.494,0,0,0,.515.1c.019-.006.039-.01.057-.017a13.734,13.734,0,0,0,3.95-2.579,23.385,23.385,0,0,0,1.933-2,24.329,24.329,0,0,0,1.695-2.306A21.227,21.227,0,0,0,204.624,58M201.8,42.3A21.875,21.875,0,0,0,202,39.384c.005-.486,0-.968-.024-1.435-.039-.464-.093-.915-.16-1.344a11.371,11.371,0,0,0-.561-2.265,19.064,19.064,0,0,0-1.284,2.288c-.206.425-.407.867-.6,1.322l-.591,1.4c-.4.958-.777,1.946-1.117,2.927s-.713,1.97-1,2.914c-.117.376-.223.76-.318,1.147s-.208.78-.295,1.17a22.872,22.872,0,0,0-.4,2.275c-.03.2-.057.4-.082.589-.057-.185-.117-.372-.183-.563a20.108,20.108,0,0,0-.932-2.091c-.181-.345-.362-.687-.574-1.017s-.441-.646-.674-.948a22.53,22.53,0,0,0-1.9-2.2,25.94,25.94,0,0,0-2.181-1.917c-.185-.144-.367-.284-.554-.419s-.386-.261-.578-.384c-.384-.246-.765-.472-1.14-.677a12.431,12.431,0,0,0-2.156-.943,7.027,7.027,0,0,0,.524,1.754c.134.316.29.641.464.972.156.335.329.677.517,1.021.368.689.828,1.378,1.261,2.055a20.638,20.638,0,0,0,1.369,1.91c.518.615,1.01,1.246,1.56,1.859s1.128,1.216,1.7,1.787a19.1,19.1,0,0,0,3.366,2.834.687.687,0,0,0,.2.087.345.345,0,0,0,.146.015.349.349,0,0,0,.141-.029.673.673,0,0,0,.188-.107,14.209,14.209,0,0,0,2.91-3.458,21.629,21.629,0,0,0,1.216-2.35A18.419,18.419,0,0,0,201.212,45a22.588,22.588,0,0,0,.585-2.7m-6.052-12.368a17.691,17.691,0,0,0,.175-2.606c.071-3.28-1.181-7.68-2.7-9.658a18.952,18.952,0,0,0-.546,2.449c-.149.892-.238,1.83-.359,2.82s-.185,1.988-.23,2.977c-.069,1-.127,1.993-.138,2.934-.007.376.007.752.015,1.135s.016.768.039,1.147a21.627,21.627,0,0,0,.24,2.181c0,.037.01.072.014.109-.018-.032-.034-.064-.052-.1a19.883,19.883,0,0,0-1.246-1.795c-.23-.294-.468-.582-.713-.861s-.525-.534-.795-.781a25.961,25.961,0,0,0-2.168-1.77,26.807,26.807,0,0,0-2.382-1.464,15.706,15.706,0,0,0-2.385-1.053,12.427,12.427,0,0,0-2.188-.571c.667,1.915,3.128,4.653,5.241,6.587.591.494,1.172,1,1.791,1.492s1.266.959,1.906,1.4a18.765,18.765,0,0,0,3.644,2.124.537.537,0,0,0,.7-.207,14.33,14.33,0,0,0,1.676-4,22.4,22.4,0,0,0,.461-2.493m-8.634-9.454a14.013,14.013,0,0,0,.373-4.156c-.048-.781-.14-1.6-.273-2.419-.07-.408-.137-.829-.237-1.229s-.209-.8-.326-1.194a19.971,19.971,0,0,0-.861-2.333c-.368-.779-.785-1.56-1.227-2.3a13.957,13.957,0,0,0-1.425-1.982,9.47,9.47,0,0,0-1.427-1.405,18.938,18.938,0,0,0,.177,2.4c.105.861.287,1.74.443,2.681s.369,1.87.6,2.788c.212.928.423,1.855.669,2.718.1.344.2.689.323,1.031s.221.7.343,1.036c.173.481.361.947.557,1.389-.335-.351-.694-.7-1.069-1.04-.265-.238-.538-.471-.815-.693s-.585-.416-.883-.605a25.045,25.045,0,0,0-2.343-1.332c-.83-.389-1.672-.737-2.494-1.027a15.877,15.877,0,0,0-2.435-.649,12.594,12.594,0,0,0-2.167-.234,6.855,6.855,0,0,0,1.02,1.347c.432.466.965.924,1.5,1.414a20.89,20.89,0,0,0,1.752,1.383c.6.446,1.2.873,1.789,1.231.312.191.636.378.967.561l.982.558c.661.365,1.344.708,2.026,1.019a19.619,19.619,0,0,0,3.792,1.433.541.541,0,0,0,.422-.054.513.513,0,0,0,.252-.337m-8.426-12a12.145,12.145,0,0,0-2.039-3.075,20.656,20.656,0,0,0-1.519-1.5c-.273-.239-.55-.489-.838-.7s-.583-.426-.88-.627a16.76,16.76,0,0,0-1.87-1.091,21.71,21.71,0,0,0-2.094-.848,11.541,11.541,0,0,0-2.053-.515,7.788,7.788,0,0,0-1.732-.116,16.694,16.694,0,0,0,1.456,1.563c.55.535,1.16,1.036,1.785,1.594s1.283,1.073,1.941,1.57c.656.514,1.308,1.025,1.948,1.472.255.179.517.351.784.514s.531.346.8.506a16.833,16.833,0,0,0,1.6.835,8.465,8.465,0,0,0,2.569.9c.193.019.246-.252.147-.481" transform="translate(0 0)" fill="#ce993c"/>
        <path id="Path_1070" data-name="Path 1070" d="M140.812,280.117a61.206,61.206,0,0,1-23.594-4.849l.563-1.188a59.827,59.827,0,0,0,23.031,4.723Z" transform="translate(-65.851 -153.974)" fill="#ce993c"/>
        <path id="Path_1071" data-name="Path 1071" d="M300.01,280.117a61.206,61.206,0,0,0,23.594-4.849l-.563-1.188A59.827,59.827,0,0,1,300.01,278.8Z" transform="translate(-168.541 -153.974)" fill="#ce993c"/>
      </g>
    </g>
  </g>
</svg>
