<?xml version="1.0" encoding="utf-8"?>
<!-- Generator: Adobe Illustrator 23.0.1, SVG Export Plug-In . SVG Version: 6.00 Build 0)  -->
<svg version="1.1" id="Capa_1" xmlns="http://www.w3.org/2000/svg" xmlns:xlink="http://www.w3.org/1999/xlink" x="0px" y="0px"
	 viewBox="0 0 512 512" style="enable-background:new 0 0 512 512;" xml:space="preserve">
<style type="text/css">
	.st0{fill:#006CB3;}
</style>
<g>
	<path class="st0" d="M393.5,185.4c7.1,0,12.8-5.7,12.8-12.8v-18.9c0-7.1-5.7-12.8-12.8-12.8h-68.7c-7.1,0-12.8,5.7-12.8,12.8v18.9
		c0,7.1,5.7,12.8,12.8,12.8H393.5z M326.9,155.9h64.3v14.5h-64.3V155.9z"/>
	<path class="st0" d="M236.4,219.7v77.6c0,11.2,9.1,20.3,20.3,20.3h204.7c11.2,0,20.3-9.1,20.3-20.3v-77.6
		c0-11.2-9.1-20.3-20.3-20.3H256.7C245.5,199.3,236.4,208.4,236.4,219.7L236.4,219.7z M466.8,219.7v77.6c0,2.9-2.4,5.3-5.3,5.3
		H256.7c-2.9,0-5.3-2.4-5.3-5.3v-77.6c0-2.9,2.4-5.3,5.3-5.3h204.7C464.4,214.3,466.8,216.7,466.8,219.7L466.8,219.7z"/>
	<path class="st0" d="M447.8,112.3H270.3c-35.4,0-64.2,28.8-64.2,64.2v9.4c0,4.1,3.4,7.5,7.5,7.5s7.5-3.4,7.5-7.5v-9.4
		c0-27.1,22.1-49.2,49.2-49.2h177.5c27.1,0,49.2,22.1,49.2,49.2v183.4h-18.2c-3.4-14.2-16.2-24.6-31.2-24.6c0,0,0,0,0,0h0h-178h0
		c-14.9,0-27.8,10.4-31.2,24.6h-17.2V220.9c0-4.1-3.4-7.5-7.5-7.5s-7.5,3.4-7.5,7.5v138.8h-159V64.8h38.4v25.9H73.9
		c-8,0-14.5,6.5-14.5,14.5V153c0,8,6.5,14.5,14.5,14.5h103.7c8,0,14.5-6.5,14.5-14.5v-47.8c0-8-6.5-14.5-14.5-14.5H166V64.8h97.5
		c7.4,0,13.5-6.1,13.5-13.5V19.2c0-7.4-6.1-13.5-13.5-13.5c-10.5,0-239.5,0-250.1,0C6.1,5.7,0,11.7,0,19.2C0,24.1,0,480,0,490.8
		c0,8.5,7,15.5,15.5,15.5h152.8c8.5,0,15.5-7,15.5-15.5v-10.4c0-4.1-3.4-7.5-7.5-7.5s-7.5,3.4-7.5,7.5v10.4c0,0.3-0.2,0.5-0.5,0.5
		H15.5c-0.3,0-0.5-0.2-0.5-0.5v-62.2h153.8v16.8c0,4.1,3.4,7.5,7.5,7.5s7.5-3.4,7.5-7.5v-16.8h22.9c1.6,0,3.2-0.3,4.7-0.8
		c6.7,11.5,19.1,19.2,33.3,19.2h228.8c21.2,0,38.5-17.3,38.5-38.5v-41.3V176.5C512,141.1,483.2,112.3,447.8,112.3L447.8,112.3z
		 M447.5,384.4c-9.4,0-17.1-7.7-17.1-17.1s7.7-17.1,17.1-17.1s17.1,7.7,17.1,17.1C464.6,376.5,457.2,384.4,447.5,384.4z
		 M269.6,350.2c0.2,0,0.3,0,0.5,0c9.3,0.2,16.7,7.9,16.7,17.1c0,9.4-7.7,17.1-17.1,17.1c-9.4,0-17.1-7.7-17.1-17.1
		C252.5,357.9,260.1,350.2,269.6,350.2z M420.4,350.2c-6.6,10.4-6.6,23.8,0,34.2H296.7c6.6-10.5,6.6-23.9,0-34.2H420.4z
		 M177.2,152.5H74.4v-46.8h102.7L177.2,152.5L177.2,152.5z M151,90.7h-50.4V64.8H151V90.7z M262.1,49.8H47.2V20.7h214.9V49.8z
		 M15,20.7h17.2v339H15V20.7z M206.2,413.7c-13.8,0-185,0-191.2,0v-39h191.2v33.9V413.7z M497,408.6c0,13-10.5,23.5-23.5,23.5H244.7
		c-13,0-23.5-10.5-23.5-23.5v-33.8h17.2c3.5,14.4,16.4,24.6,31.2,24.6h178c15,0,27.8-10.4,31.2-24.6H497V408.6z"/>
	<path class="st0" d="M498.5,459.3c-10.4,0-268,0-278.8,0c-7.4,0-13.5,6.1-13.5,13.5v20c0,7.4,6.1,13.5,13.5,13.5h278.8
		c7.4,0,13.5-6.1,13.5-13.5v-20C512,465.4,505.9,459.3,498.5,459.3z M426.3,474.3v17H291.8v-17H426.3z M221.2,474.3h13.3v17h-13.3
		V474.3z M249.5,491.3v-17h27.3v17H249.5z M441.3,491.3v-17h27.3v17H441.3z M497,491.3h-13.3v-17H497V491.3z"/>
</g>
</svg>
